<svg id="visual" viewBox="0 0 900 600" width="900" height="600" xmlns="http://www.w3.org/2000/svg" xmlns:xlink="http://www.w3.org/1999/xlink" version="1.1"><rect x="0" y="0" width="900" height="600" fill="#001220"></rect><defs><linearGradient id="grad1_0" x1="33.3%" y1="0%" x2="100%" y2="100%"><stop offset="20%" stop-color="#001220" stop-opacity="1"></stop><stop offset="80%" stop-color="#001220" stop-opacity="1"></stop></linearGradient></defs><defs><linearGradient id="grad2_0" x1="0%" y1="0%" x2="66.7%" y2="100%"><stop offset="20%" stop-color="#001220" stop-opacity="1"></stop><stop offset="80%" stop-color="#001220" stop-opacity="1"></stop></linearGradient></defs><g transform="translate(900, 0)"><path d="M0 486.7C-62.8 479.3 -125.5 471.9 -186.3 449.7C-247 427.5 -305.8 390.4 -340.1 340.1C-374.4 289.9 -384.3 226.5 -404.7 167.6C-425 108.7 -455.9 54.4 -486.7 0L0 0Z" fill="#C62368"></path></g><g transform="translate(0, 600)"><path d="M0 -486.7C67.4 -484.4 134.9 -482.1 186.3 -449.7C237.6 -417.3 272.9 -354.8 302.6 -302.6C332.3 -250.5 356.4 -208.7 386.2 -160C415.9 -111.2 451.3 -55.6 486.7 0L0 0Z" fill="#C62368"></path></g></svg>