<svg id="visual" viewBox="0 0 900 600" width="900" height="600" xmlns="http://www.w3.org/2000/svg" xmlns:xlink="http://www.w3.org/1999/xlink" version="1.1"><rect x="0" y="0" width="900" height="600" fill="#02121e"></rect><path d="M0 249L15 260.8C30 272.7 60 296.3 90 312.8C120 329.3 150 338.7 180 326.7C210 314.7 240 281.3 270 286.2C300 291 330 334 360 343.8C390 353.7 420 330.3 450 316.3C480 302.3 510 297.7 540 300C570 302.3 600 311.7 630 304.2C660 296.7 690 272.3 720 259.5C750 246.7 780 245.3 810 267.5C840 289.7 870 335.3 885 358.2L900 381L900 601L885 601C870 601 840 601 810 601C780 601 750 601 720 601C690 601 660 601 630 601C600 601 570 601 540 601C510 601 480 601 450 601C420 601 390 601 360 601C330 601 300 601 270 601C240 601 210 601 180 601C150 601 120 601 90 601C60 601 30 601 15 601L0 601Z" fill="#fa7268"></path><path d="M0 365L15 368C30 371 60 377 90 372.3C120 367.7 150 352.3 180 360.8C210 369.3 240 401.7 270 411C300 420.3 330 406.7 360 397C390 387.3 420 381.7 450 386.8C480 392 510 408 540 418.8C570 429.7 600 435.3 630 425.5C660 415.7 690 390.3 720 391.2C750 392 780 419 810 411.7C840 404.3 870 362.7 885 341.8L900 321L900 601L885 601C870 601 840 601 810 601C780 601 750 601 720 601C690 601 660 601 630 601C600 601 570 601 540 601C510 601 480 601 450 601C420 601 390 601 360 601C330 601 300 601 270 601C240 601 210 601 180 601C150 601 120 601 90 601C60 601 30 601 15 601L0 601Z" fill="#eb5967"></path><path d="M0 431L15 427C30 423 60 415 90 420.2C120 425.3 150 443.7 180 445.7C210 447.7 240 433.3 270 439.3C300 445.3 330 471.7 360 479.7C390 487.7 420 477.3 450 463.3C480 449.3 510 431.7 540 429.2C570 426.7 600 439.3 630 456C660 472.7 690 493.3 720 496.5C750 499.7 780 485.3 810 468.8C840 452.3 870 433.7 885 424.3L900 415L900 601L885 601C870 601 840 601 810 601C780 601 750 601 720 601C690 601 660 601 630 601C600 601 570 601 540 601C510 601 480 601 450 601C420 601 390 601 360 601C330 601 300 601 270 601C240 601 210 601 180 601C150 601 120 601 90 601C60 601 30 601 15 601L0 601Z" fill="#da3f67"></path><path d="M0 489L15 490.3C30 491.7 60 494.3 90 493.5C120 492.7 150 488.3 180 496.8C210 505.3 240 526.7 270 525.2C300 523.7 330 499.3 360 486.3C390 473.3 420 471.7 450 484C480 496.3 510 522.7 540 535.7C570 548.7 600 548.3 630 547.5C660 546.7 690 545.3 720 540.2C750 535 780 526 810 527.5C840 529 870 541 885 547L900 553L900 601L885 601C870 601 840 601 810 601C780 601 750 601 720 601C690 601 660 601 630 601C600 601 570 601 540 601C510 601 480 601 450 601C420 601 390 601 360 601C330 601 300 601 270 601C240 601 210 601 180 601C150 601 120 601 90 601C60 601 30 601 15 601L0 601Z" fill="#c62368"></path></svg>